<?xml version="1.0" encoding="UTF-8" standalone="no"?>
<svg width="24px" height="20px" viewBox="0 0 24 20" version="1.1" xmlns="http://www.w3.org/2000/svg" xmlns:xlink="http://www.w3.org/1999/xlink">
    <!-- Generator: Sketch 40.1 (33804) - http://www.bohemiancoding.com/sketch -->
    <title>Group 2</title>
    <desc>Created with Sketch.</desc>
    <defs></defs>
    <g id="Page-1" stroke="none" stroke-width="1" fill="none" fill-rule="evenodd">
        <g id="Desktop-HD" transform="translate(-574.000000, -912.000000)" fill="#414141">
            <g id="Letter-page" transform="translate(470.000000, 213.000000)">
                <g id="Group-2" transform="translate(104.000000, 699.000000)">
                    <path d="M16,5.71134021 C16,5.89003436 15.9331997,6.04810997 15.7995992,6.18556701 L6.46092184,15.7938144 C6.32732131,15.9312715 6.17368069,16 6,16 C5.82631931,16 5.67267869,15.9312715 5.53907816,15.7938144 L-3.7995992,6.18556701 C-3.93319973,6.04810997 -4,5.89003436 -4,5.71134021 C-4,5.53264605 -3.93319973,5.37457045 -3.7995992,5.2371134 L-2.79759519,4.20618557 C-2.66399466,4.06872852 -2.51035404,4 -2.33667335,4 C-2.16299265,4 -2.00935204,4.06872852 -1.8757515,4.20618557 L6,12.3092784 L13.8757515,4.20618557 C14.009352,4.06872852 14.1629927,4 14.3366733,4 C14.510354,4 14.6639947,4.06872852 14.7975952,4.20618557 L15.7995992,5.2371134 C15.9331997,5.37457045 16,5.53264605 16,5.71134021 L16,5.71134021 Z" id="Shape" transform="translate(6.000000, 10.000000) rotate(-270.000000) translate(-6.000000, -10.000000) "></path>
                    <path d="M28,5.71134021 C28,5.89003436 27.9331997,6.04810997 27.7995992,6.18556701 L18.4609218,15.7938144 C18.3273213,15.9312715 18.1736807,16 18,16 C17.8263193,16 17.6726787,15.9312715 17.5390782,15.7938144 L8.2004008,6.18556701 C8.06680027,6.04810997 8,5.89003436 8,5.71134021 C8,5.53264605 8.06680027,5.37457045 8.2004008,5.2371134 L9.20240481,4.20618557 C9.33600534,4.06872852 9.48964596,4 9.66332665,4 C9.83700735,4 9.99064796,4.06872852 10.1242485,4.20618557 L18,12.3092784 L25.8757515,4.20618557 C26.009352,4.06872852 26.1629927,4 26.3366733,4 C26.510354,4 26.6639947,4.06872852 26.7975952,4.20618557 L27.7995992,5.2371134 C27.9331997,5.37457045 28,5.53264605 28,5.71134021 L28,5.71134021 Z" id="Shape-Copy" transform="translate(18.000000, 10.000000) rotate(-270.000000) translate(-18.000000, -10.000000) "></path>
                </g>
            </g>
        </g>
    </g>
</svg>