<?xml version="1.0" encoding="UTF-8" standalone="no"?>
<svg width="20px" height="12px" viewBox="0 0 20 12" version="1.1" xmlns="http://www.w3.org/2000/svg" xmlns:xlink="http://www.w3.org/1999/xlink">
    <!-- Generator: Sketch 40.1 (33804) - http://www.bohemiancoding.com/sketch -->
    <title>Shape</title>
    <desc>Created with Sketch.</desc>
    <defs></defs>
    <g id="Symbols" stroke="none" stroke-width="1" fill="none" fill-rule="evenodd">
        <g id="Dropdown100%/Disabled" transform="translate(-729.000000, -53.000000)" fill="#414141">
            <path d="M749,54.7113402 C749,54.8900344 748.9332,55.04811 748.799599,55.185567 L739.460922,64.7938144 C739.327321,64.9312715 739.173681,65 739,65 C738.826319,65 738.672679,64.9312715 738.539078,64.7938144 L729.200401,55.185567 C729.0668,55.04811 729,54.8900344 729,54.7113402 C729,54.532646 729.0668,54.3745704 729.200401,54.2371134 L730.202405,53.2061856 C730.336005,53.0687285 730.489646,53 730.663327,53 C730.837007,53 730.990648,53.0687285 731.124248,53.2061856 L739,61.3092784 L746.875752,53.2061856 C747.009352,53.0687285 747.162993,53 747.336673,53 C747.510354,53 747.663995,53.0687285 747.797595,53.2061856 L748.799599,54.2371134 C748.9332,54.3745704 749,54.532646 749,54.7113402 L749,54.7113402 Z" id="Shape"></path>
        </g>
    </g>
</svg>