<?xml version="1.0" encoding="utf-8"?>
<!-- Generator: Adobe Illustrator 18.0.0, SVG Export Plug-In . SVG Version: 6.00 Build 0)  -->
<!DOCTYPE svg PUBLIC "-//W3C//DTD SVG 1.1//EN" "http://www.w3.org/Graphics/SVG/1.1/DTD/svg11.dtd">
<svg version="1.1" id="Layer_1" xmlns="http://www.w3.org/2000/svg" xmlns:xlink="http://www.w3.org/1999/xlink" x="0px" y="0px"
	 viewBox="42.2 116.1 204.5 68.4" enable-background="new 42.2 116.1 204.5 68.4" xml:space="preserve">
<g>
	<g>
		<path fill="#425463" d="M210.2,144.6c0-9.2,0-16.7,0-24.3c0-1,0.3-1.3,1.3-1.2c1.1,0.1,2.2,0.1,3.2,0s1.2,0.3,1.2,1.2
			c0,5,0,9.9,0,14.9c0,1.5,0,1.6,1.5,1.2c3.7-1.1,7.5-1.5,11.4-1.4c4.8,0.2,9.1,1.8,12.6,5.3c2.5,2.6,3.8,5.8,4.5,9.3
			c1.2,5.7,1,11.4-0.6,17.1c-2,6.8-6.3,11-13.4,12.3c-5.3,1-10.3,0.3-15.1-2.1c-3.8-1.9-5.9-5.2-6.2-9.3
			C209.8,159.4,210.4,151.2,210.2,144.6z M215.9,154.9c0,3.7,0,7.5,0,11.2c0,3.5,1.6,5.9,4.9,7.1c3,1.1,6.1,1.2,9.3,0.9
			c4.5-0.5,8.2-3.4,9.5-7.6c1.7-5.9,1.8-11.9,0.3-17.9c-0.9-3.6-3.1-6.2-6.7-7.3c-5.6-1.8-11.1-1-16.5,1c-0.7,0.3-0.7,0.7-0.7,1.3
			C215.9,147.3,215.9,151.1,215.9,154.9z"/>
		<path fill="#425463" d="M178.4,135c3.6-0.2,7,0.6,10.2,2.1c4.8,2.2,7.5,6.1,8.9,11.1c1,3.6,1.3,7.2,1.1,10.9
			c-0.2,3.6-0.7,7.1-2.3,10.4c-1.5,3.1-3.6,5.4-6.6,7.1c-3.9,2.2-8.1,3-12.5,2.7c-5.2-0.3-10-1.9-13.7-5.7c-2.2-2.3-3.4-5.3-4.1-8.4
			c-1.4-6.5-1.3-12.9,0.9-19.2c2.2-6.1,6.9-9.1,12.8-10.6C174.9,135,176.7,134.9,178.4,135z M178.5,140.1c-0.5,0-1,0-1.6,0
			s-1.1,0.1-1.7,0.2c-5.2,0.7-8.7,3.4-10.1,8.4c-1.6,5.6-1.6,11.3,0,16.9c1.1,3.9,3.6,6.6,7.6,7.8c3.1,0.9,6.4,1,9.6,0.4
			c2.4-0.4,4.5-1.3,6.2-3c2.8-2.7,3.5-6.2,4-9.9c0.4-3.6,0.2-7.2-0.5-10.8s-2.3-6.6-5.6-8.4C184.1,140.4,181.4,140.1,178.5,140.1z"
			/>
		<path fill="#187ADD" d="M84.1,121.1c0,0.9-0.4,2-1.4,2.9c-8.4,8.3-16.7,16.5-25.1,24.8c-2.4,2.4-4.8,4.9-7.3,7.2
			c-2.9,2.7-7.1,1.4-8-2.4c-0.4-1.6,0.3-3,1.5-4.1c4.4-4.4,8.8-8.7,13.2-13c5.6-5.5,11.1-11.1,16.7-16.6c0.9-0.9,1.8-1.8,2.8-2.6
			c1.5-1.3,3.2-1.5,5-0.7C83.3,117.3,84.1,118.7,84.1,121.1z"/>
		<path fill="#2994EC" d="M64.6,159.4c-2.1,0-3.5-0.8-4.3-2.4c-0.8-1.6-0.7-3.2,0.4-4.7c1.3-1.9,3.2-3.2,4.8-4.8
			c5-5.1,10.1-10,15.1-15c4.4-4.3,8.8-8.6,13.1-12.9c1.8-1.8,4.7-1.7,6.5,0.1c1.7,1.8,1.7,4.6-0.1,6.4c-8.7,8.7-17.4,17.3-26.2,25.9
			c-2.1,2-4.2,4-6.2,6.1C66.8,159,65.7,159.5,64.6,159.4z"/>
		<path fill="#425463" d="M116.3,149.8c0-9.1,0-18.3,0-27.4c0-1.1,0.3-1.5,1.4-1.4s2.3,0,3.5,0c0.6,0,0.9,0.2,0.8,0.9
			c0,0.4,0,0.7,0,1.1c0,16.1,0,32.2,0,48.3c0,1.8,0,1.8,1.8,1.8c8.8,0,17.7,0,26.5,0c1.5,0,1.5,0,1.5,1.5c0,1,0,1.9,0,2.9
			c0,0.8-0.2,1.1-1.1,1.1c-1.6-0.1-3.3,0-4.9,0c-9.3,0-18.6,0-27.9,0c-1.5,0-1.5,0-1.5-1.4C116.3,168.1,116.3,159,116.3,149.8z"/>
		<path fill="#40ABF4" d="M57.3,184.5c-1.6-0.1-2.9-1.1-3.7-2.8c-0.7-1.5-0.3-3.2,1-4.5c5.5-5.5,10.9-11.1,16.5-16.5
			c5.4-5.1,10.5-10.5,15.8-15.6c1.9-1.9,4.7-1.9,6.5-0.1c1.6,1.6,1.6,4.1,0,5.7c-5.2,5.2-10.4,10.5-15.7,15.6
			c-5.6,5.4-11.1,11-16.6,16.5C60.1,183.8,59,184.5,57.3,184.5z"/>
	</g>
</g>
</svg>
