<?xml version="1.0" encoding="UTF-8" standalone="no"?>
<svg width="27px" height="27px" viewBox="0 0 27 27" version="1.1" xmlns="http://www.w3.org/2000/svg" xmlns:xlink="http://www.w3.org/1999/xlink">
    <!-- Generator: Sketch 40.1 (33804) - http://www.bohemiancoding.com/sketch -->
    <title>Combined Shape</title>
    <desc>Created with Sketch.</desc>
    <defs></defs>
    <g id="Page-1" stroke="none" stroke-width="1" fill="none" fill-rule="evenodd">
        <g id="Artboard" transform="translate(-245.000000, -153.000000)" fill="#FFFFFF">
            <path d="M271.163046,161.809983 C271.704306,163.270841 272,164.850889 272,166.5 C272,173.955844 265.955844,180 258.5,180 C251.044156,180 245,173.955844 245,166.5 C245,159.044156 251.044156,153 258.5,153 C260.149111,153 261.729159,153.295694 263.190017,153.836954 L262.4952,155.71296 C261.250765,155.251887 259.904798,155 258.5,155 C252.148725,155 247,160.148725 247,166.5 C247,172.851275 252.148725,178 258.5,178 C264.851275,178 270,172.851275 270,166.5 C270,165.095202 269.748113,163.749235 269.28704,162.5048 L271.163046,161.809983 Z" id="Combined-Shape"></path>
        </g>
    </g>
</svg>