<?xml version="1.0" encoding="UTF-8" standalone="no"?>
<svg width="1188px" height="1103px" viewBox="0 0 1188 1103" version="1.1" xmlns="http://www.w3.org/2000/svg" xmlns:xlink="http://www.w3.org/1999/xlink">
    <!-- Generator: Sketch 40.1 (33804) - http://www.bohemiancoding.com/sketch -->
    <title>Shape</title>
    <desc>Created with Sketch.</desc>
    <defs></defs>
    <g id="Page-1" stroke="none" stroke-width="1" fill="none" fill-rule="evenodd">
        <g id="Desktop-HD" transform="translate(-115.000000, -94.000000)" fill="#FFFFFF">
            <g id="Letter-page" transform="translate(115.000000, 94.000000)">
                <g id="times">
                    <path d="M1188,956 C1188,982.666667 1178.66667,1005.33333 1160,1024 L1024,1160 C1005.33333,1178.66667 982.666667,1188 956,1188 C929.333333,1188 906.666667,1178.66667 888,1160 L594,866 L300,1160 C281.333333,1178.66667 258.666667,1188 232,1188 C205.333333,1188 182.666667,1178.66667 164,1160 L28,1024 C9.33333333,1005.33333 0,982.666667 0,956 C0,929.333333 9.33333333,906.666667 28,888 L322,594 L28,300 C9.33333333,281.333333 0,258.666667 0,232 C0,205.333333 9.33333333,182.666667 28,164 L164,28 C182.666667,9.33333333 205.333333,0 232,0 C258.666667,0 281.333333,9.33333333 300,28 L594,322 L888,28 C906.666667,9.33333333 929.333333,0 956,0 C982.666667,0 1005.33333,9.33333333 1024,28 L1160,164 C1178.66667,182.666667 1188,205.333333 1188,232 C1188,258.666667 1178.66667,281.333333 1160,300 L866,594 L1160,888 C1178.66667,906.666667 1188,929.333333 1188,956 L1188,956 Z" id="Shape"></path>
                </g>
            </g>
        </g>
    </g>
</svg>